<?xml version="1.0" encoding="UTF-8"?>
<svg width="235px" height="152px" viewBox="0 0 235 152" version="1.1" xmlns="http://www.w3.org/2000/svg" xmlns:xlink="http://www.w3.org/1999/xlink">
    <title>beans</title>
    <g id="beans" stroke="none" stroke-width="1" fill="none" fill-rule="evenodd">
        <g id="Group" transform="translate(114.000000, 76.500000) rotate(27.000000) translate(-114.000000, -76.500000) translate(4.000000, -23.000000)" fill="#424141" fill-rule="nonzero">
            <g id="Group-2" transform="translate(137.253815, 82.873277) scale(1, -1) rotate(20.000000) translate(-137.253815, -82.873277) translate(73.253815, 18.873277)">
                <path d="M126.433841,20.7669734 C123.313591,12.8527234 117.305341,6.4182234 109.623091,2.7637234 C95.6880914,-3.5252766 79.2060914,0.931223399 60.6333414,16.0074734 C56.7983414,19.1227234 53.2953414,22.6257234 50.1800914,26.4607234 C38.2973414,41.0997234 33.0408414,54.4329734 34.4148414,66.2494734 C17.3308414,70.0212234 6.39534139,77.8869734 1.93659139,89.6757234 C-0.91340861,97.6994734 -0.60840861,106.506223 2.78984139,114.313473 C5.03284139,119.617723 9.34184139,123.778223 14.7215914,125.833473 C22.7658414,128.601473 31.6220914,127.671223 38.9158414,123.292723 C43.2938414,120.748723 48.2548414,119.378973 53.3180914,119.316223 C58.3835914,119.380223 63.3463414,120.752973 67.7245914,123.301223 C72.3068414,125.968473 77.5055914,127.394223 82.8073414,127.437811 C85.9140914,127.445723 88.9978414,126.905473 91.9165914,125.841973 C97.3055914,123.781723 101.620341,119.611723 103.863341,114.296473 C107.259341,106.494723 107.564341,97.6939734 104.716591,89.6757234 C101.483841,81.6044734 95.2643414,75.0899734 87.3513414,71.4869734 C88.7240914,67.1952234 91.0825914,63.2842234 94.2378414,60.0672234 C97.8668414,56.5284734 102.349841,53.9892234 107.251091,52.6964734 C115.502591,50.6337234 122.422591,45.0339734 126.161091,37.3939734 C128.510591,32.1197234 128.609091,26.1154734 126.433841,20.7669734 Z M100.731341,91.1839734 C103.197091,98.1322234 102.931591,105.757473 99.9888414,112.517223 C98.1915914,116.779723 94.7525914,120.137973 90.4485914,121.833473 C83.5863414,124.165223 76.0445914,123.345973 69.8428414,119.595723 C59.6288414,113.645973 47.0050914,113.645973 36.7910914,119.595723 C30.5883414,123.345473 23.0460914,124.164473 16.1830914,121.833473 C11.8873414,120.140473 8.45459139,116.788473 6.65984139,112.534223 C3.71759139,105.767723 3.45609139,98.1359734 5.92809139,91.1837234 C9.82984139,80.8647234 19.6815914,73.9037234 35.1888414,70.4369734 C35.6303414,72.1519734 36.2168414,73.8262234 36.9423414,75.4417234 C40.5958414,83.1212234 47.0280914,89.1277234 54.9390914,92.2482234 C57.5745914,93.2559734 60.3693414,93.7834734 63.1908414,93.8054734 C65.5915914,93.8034734 67.9718414,93.3652234 70.2158414,92.5127234 C70.9770914,92.8429734 71.7828414,93.0587234 72.6073414,93.1527234 C73.4623414,93.2339734 74.2835914,93.5272234 74.9965914,94.0059734 C75.6883414,94.5194734 76.2358414,95.2029734 76.5858414,95.9899734 C77.5305914,98.2062234 79.4175914,99.8834734 81.7293414,100.561723 C82.2705914,100.715973 82.8305914,100.794223 83.3933414,100.794223 C84.5625914,100.782473 85.7085914,100.464723 86.7170914,99.8727234 C88.7563414,98.6729734 90.2540914,96.7327234 90.8983414,94.4562234 C91.6385914,91.7042234 91.3250914,87.3692234 85.6738414,82.3494734 C85.0193414,81.7774734 84.3248414,81.2527234 83.5960914,80.7792234 C84.5690914,79.1267234 85.3875914,77.3877234 86.0408414,75.5844734 C92.7243414,78.7537234 97.9690914,84.3229734 100.731341,91.1839734 Z M75.6433414,89.5584734 C77.7340914,88.0802234 79.6075914,86.3167234 81.2090914,84.3189734 C81.7803414,84.6859734 82.3235914,85.0944734 82.8345914,85.5414734 C85.0618414,87.5169734 87.5535914,90.4759734 86.7770914,93.3579734 C86.4248414,94.5304734 85.6523414,95.5317234 84.6075914,96.1697234 C84.0945914,96.5007234 83.4680914,96.6054734 82.8753414,96.4599734 C81.7865914,96.1152234 80.9075914,95.3034734 80.4775914,94.2454734 C79.8190914,92.7752234 78.7898414,91.5012234 77.4908414,90.5484734 C76.9160914,90.1469734 76.2960914,89.8147234 75.6433414,89.5584734 Z M122.284341,35.5934734 C119.073591,42.0907234 113.159341,46.8402234 106.122091,48.5727234 C94.6355914,51.4867234 85.6675914,60.4579734 82.7578414,71.9454734 C81.0245914,78.9824734 76.2743414,84.8959734 69.7765914,88.1054734 C65.5298414,89.9459734 60.7210914,89.9989734 56.4348414,88.2527234 C49.5783414,85.5494734 44.0038414,80.3439734 40.8380914,73.6884734 C35.2678414,61.3472234 39.5283414,46.3604734 53.5058414,29.1444734 C56.4313414,25.5452234 59.7198414,22.2567234 63.3190914,19.3312234 C75.6540914,9.3087234 86.8413414,4.28666256 96.7313414,4.28666256 C100.569591,4.2684734 104.366841,5.0759734 107.865091,6.6549734 C114.523841,9.8179734 119.732841,15.3919734 122.437841,22.2497234 C124.183341,26.5372234 124.128091,31.3472234 122.284341,35.5934734 Z" id="Shape"></path>
                <path d="M90.9755914,11.0474734 C89.7495914,11.1197234 88.5340914,11.3184734 87.3488414,11.6404734 C81.4758414,13.2362234 78.0838414,16.0992234 77.2645914,20.1482234 C76.8290914,22.4719734 77.3058414,24.8742234 78.5958414,26.8554734 C79.5310914,28.3307234 81.0285914,29.3594734 82.7408414,29.7034734 C83.2075914,29.7929734 83.6820914,29.8379734 84.1573414,29.8379734 C86.0723414,29.8172234 87.9218414,29.1394734 89.3968414,27.9179734 C90.7290914,26.7772234 92.5860914,26.4744734 94.2118414,27.1329734 C96.4553414,28.0112234 98.9718414,27.8549734 101.089591,26.7062234 C102.604591,25.8349734 103.698841,24.3834734 104.118841,22.6869734 C104.707841,20.3984734 104.392341,17.9712234 103.237841,15.9094734 C101.179341,12.3297234 97.0513414,10.6869734 90.9755914,11.0474734 Z M99.9975914,21.5669734 L99.9975914,21.5649734 C99.8708414,22.1587234 99.5070914,22.6749734 98.9905914,22.9942234 C97.9668414,23.5209734 96.7633414,23.5717234 95.6988414,23.1329734 C92.6573414,21.9472234 89.2115914,22.5094734 86.7045914,24.6007234 C85.8353414,25.3552234 84.6783414,25.6889734 83.5408414,25.5137234 C82.9490914,25.3759734 82.4395914,25.0022234 82.1305914,24.4789734 C81.4805914,23.4419734 81.2345914,22.2019734 81.4393414,20.9952234 C81.9128414,18.6484734 84.2745914,16.8949734 88.4600914,15.7579734 C89.3665914,15.5124734 90.2958414,15.3617234 91.2333414,15.3079734 C91.6983414,15.2794734 92.1463414,15.2652234 92.5773414,15.2652234 C96.1463414,15.2652234 98.4888414,16.1974734 99.5533414,18.0384734 C100.129841,19.1202234 100.287841,20.3762234 99.9975914,21.5669734 Z" id="Shape"></path>
                <path d="M73.8728414,27.6277234 C70.9175914,24.8099734 66.2703414,24.8099734 63.3150914,27.6277234 C60.3993414,30.5437234 60.3995914,35.2712234 63.3153414,38.1869734 C66.2313414,41.1027234 70.9588414,41.1027234 73.8745914,38.1869734 C76.7905914,35.2712234 76.7905914,30.5437234 73.8748414,27.6277234 L73.8728414,27.6277234 L73.8728414,27.6277234 Z M70.8560914,35.1712234 C69.6060914,36.4202234 67.5803414,36.4199734 66.3310914,35.1702234 C65.0818414,33.9207234 65.0818414,31.8947234 66.3310914,30.6452234 C67.5803414,29.3957234 69.6060914,29.3952234 70.8560914,30.6442234 C71.4565914,31.2444734 71.7940914,32.0587234 71.7940914,32.9077234 C71.7940914,33.7567234 71.4568414,34.5709734 70.8560914,35.1712234 Z" id="Shape"></path>
            </g>
            <g id="Group-3" transform="translate(68.630081, 130.164078) scale(1, -1) rotate(44.000000) translate(-68.630081, -130.164078) translate(20.630081, 81.164078)">
                <path d="M53.798468,74.1943425 C55.171218,69.9025925 58.116713,64.2842234 61.271963,61.0672234 C64.900963,57.5284734 69.383963,54.9892234 74.285213,53.6964734 C82.536713,51.6337234 89.456713,46.0339734 93.195213,38.3939734 C95.544713,33.1197234 95.643213,27.1154734 93.467963,21.7669734 C90.347713,13.8527234 84.339463,7.4182234 76.657213,3.7637234 C62.722213,-2.5252766 46.240213,1.9312234 27.667463,17.0074734 C23.832463,20.1227234 20.329463,23.6257234 17.214213,27.4607234 C5.33146305,42.0997234 -0.52898508,53.9853073 1.3429922,66.9887083 C3.21496949,79.9921093 5.21906359,88.4761316 14.3051525,93.3869185 C18.5125084,95.6608812 23.7565377,97.79375 31.2727432,96.9081895 C38.8917898,96.0105122 46.3910919,91.5125278 48.9125873,88.2884648 C53.294299,82.6858711 52.425718,78.4860925 53.798468,74.1943425 Z M5.67767901,68.133381 C3.81390866,56.0360308 6.56246305,47.3604734 20.539963,30.1444734 C23.465463,26.5452234 26.753963,23.2567234 30.353213,20.3312234 C42.688213,10.3087234 53.875463,5.28578957 63.765463,5.28578957 C67.603713,5.2684734 71.400963,6.0759734 74.899213,7.6549734 C81.557963,10.8179734 86.766963,16.3919734 89.471963,23.2497234 C91.217463,27.5372234 91.162213,32.3472234 89.318463,36.5934734 C86.107713,43.0907234 80.193463,47.8402234 73.156213,49.5727234 C61.669713,52.4867234 52.798957,60.920991 49.889207,72.408491 C49.2811625,78.0302914 47.850299,82.2704736 45.5966164,85.1290378 C42.2160925,89.4168839 35.1176256,92.9668791 27.0050651,92.8252739 C18.8925046,92.6836686 13.4686736,89.3909866 9.57642666,82.726107 C7.84724035,79.765139 6.54765781,74.900897 5.67767901,68.133381 Z" id="Shape" transform="translate(48.015612, 49.056621) rotate(-181.000000) translate(-48.015612, -49.056621) "></path>
                <path d="M38.9404415,67.4903878 C37.7144415,67.5626378 36.4989415,67.7613878 35.3136915,68.0833878 C29.4406915,69.6791378 26.0486915,72.5421378 25.2294415,76.5911378 C24.7939415,78.9148878 25.2706915,81.3171378 26.5606915,83.2983878 C27.4959415,84.7736378 28.9934415,85.8023878 30.7056915,86.1463878 C31.1724415,86.2358878 31.6469415,86.2808878 32.1221915,86.2808878 C34.0371915,86.2601378 35.8866915,85.5823878 37.3616915,84.3608878 C38.6939415,83.2201378 40.5509415,82.9173878 42.1766915,83.5758878 C44.4201915,84.4541378 46.9366915,84.2978878 49.0544415,83.1491378 C50.5694415,82.2778878 51.6636915,80.8263878 52.0836915,79.1298878 C52.6726915,76.8413878 52.3571915,74.4141378 51.2026915,72.3523878 C49.1441915,68.7726378 45.0161915,67.1298878 38.9404415,67.4903878 Z M47.9624415,78.0098878 L47.9624415,78.0078878 C47.8356915,78.6016378 47.4719415,79.1178878 46.9554415,79.4371378 C45.9316915,79.9638878 44.7281915,80.0146378 43.6636915,79.5758878 C40.6221915,78.3901378 37.1764415,78.9523878 34.6694415,81.0436378 C33.8001915,81.7981378 32.6431915,82.1318878 31.5056915,81.9566378 C30.9139415,81.8188878 30.4044415,81.4451378 30.0954415,80.9218878 C29.4454415,79.8848878 29.1994415,78.6448878 29.4041915,77.4381378 C29.8776915,75.0913878 32.2394415,73.3378878 36.4249415,72.2008878 C37.3314415,71.9553878 38.2606915,71.8046378 39.1981915,71.7508878 C39.6631915,71.7223878 40.1111915,71.7081378 40.5421915,71.7081378 C44.1111915,71.7081378 46.4536915,72.6403878 47.5181915,74.4813878 C48.0946915,75.5631378 48.2526915,76.8191378 47.9624415,78.0098878 Z" id="Shape" transform="translate(38.722898, 76.861286) rotate(-181.000000) translate(-38.722898, -76.861286) "></path>
            </g>
        </g>
    </g>
</svg>