<?xml version="1.0" encoding="UTF-8"?>
<svg width="235px" height="152px" viewBox="0 0 235 152" version="1.1" xmlns="http://www.w3.org/2000/svg" xmlns:xlink="http://www.w3.org/1999/xlink">
    <title>burger</title>
    <g id="burger" stroke="none" stroke-width="1" fill="none" fill-rule="evenodd">
        <g id="135362" transform="translate(54.000000, 20.000000)" fill="#424141" fill-rule="nonzero">
            <path d="M84.2100984,25.0284906 C84.6056831,25.289305 85.0516855,25.4163187 85.4899313,25.4163187 C86.2365007,25.4163187 86.9685261,25.0566081 87.4145288,24.3885739 C88.122315,23.3259247 87.8353222,21.8928998 86.774612,21.1831742 L79.8421838,16.5622015 C78.7795346,15.8524763 77.3445704,16.1414081 76.6377536,17.2021183 C75.9299671,18.2647674 76.21696,19.6977924 77.2776701,20.4075179 L84.2100984,25.0284906 Z" id="Path"></path>
            <path d="M52.1115007,15.9319809 C52.4411546,16.0958382 52.7950477,16.1743734 53.1411843,16.1743734 C53.9895585,16.1743734 54.8049671,15.7080101 55.2112172,14.8964797 L57.522673,10.2755073 C58.0927804,9.13335322 57.6312649,7.7449284 56.4891111,7.17385149 C55.3430788,6.60762238 53.9595017,7.06622912 53.3884248,8.20741342 L51.0779385,12.8283861 C50.5049223,13.9724792 50.9703161,15.3589647 52.1115007,15.9319809 Z" id="Path"></path>
            <path d="M26.6942124,22.8634397 C27.0248359,23.0282668 27.3787292,23.1068019 27.7248658,23.1068019 C28.57324,23.1068019 29.3886486,22.6394691 29.7948984,21.828908 L32.1053848,17.2069661 C32.6764619,16.0657815 32.2139767,14.6773567 31.0727924,14.1062798 C29.9286993,13.5381116 28.5431832,13.9996272 27.9721061,15.1388724 L25.66162,19.7608144 C25.0886038,20.9039379 25.5530281,22.2904238 26.6942124,22.8634397 Z" id="Path"></path>
            <path d="M29.0095465,81.2596956 C27.9449584,80.5509398 26.5119332,80.8369631 25.8051164,81.8996123 C25.0973299,82.963231 25.3843227,84.3952864 26.4450329,85.1050119 L33.3774612,89.7259846 C33.7720764,89.986799 34.2180788,90.1138128 34.6572941,90.1138128 C35.4028937,90.1138128 36.1358891,89.7531323 36.5818913,89.0860679 C37.2887083,88.0224492 37.0017155,86.5903938 35.9410053,85.8806683 L29.0095465,81.2596956 Z" id="Path"></path>
            <path d="M59.8331594,86.770734 C59.263052,85.62858 57.8765662,85.1719122 56.7324731,85.7371718 C55.5912888,86.3082487 55.1288038,87.6966736 55.6998807,88.8388276 L58.010367,93.4598001 C58.4146778,94.2684219 59.2300865,94.7357547 60.0784606,94.7357547 C60.4245972,94.7357547 60.7784906,94.6572196 61.109114,94.4923925 C62.2502983,93.9222853 62.7118138,92.5338605 62.1417064,91.3917064 L59.8331594,86.770734 Z" id="Path"></path>
            <path d="M79.5939737,76.4932877 C78.4479417,75.9241498 77.0633949,76.3866348 76.4932877,77.5258801 L74.1818319,82.1468526 C73.6117242,83.2890066 74.07324,84.6774314 75.2153938,85.2475388 C75.5479565,85.414305 75.9018496,85.4928401 76.2479862,85.4928401 C77.0953909,85.4928401 77.911769,85.0264768 78.3180191,84.2149462 L80.6285054,79.5939737 C81.1995823,78.4518197 80.7351581,77.0663036 79.5939737,76.4932877 L79.5939737,76.4932877 Z" id="Path"></path>
            <path d="M120.152073,53.1440931 L6.93242853,53.1440931 C3.11038186,53.1440931 1.41091064e-14,56.2544749 1.41091064e-14,60.0755518 L1.41091064e-14,62.3870077 C1.41091064e-14,63.7589499 0.414006625,64.8642601 1.22747601,65.672882 C2.60232697,67.0380371 4.5133503,67.0312501 6.36329063,67.0108889 L92.4242989,67.0079804 L92.4242989,69.3184667 L11.6319361,69.3184667 C7.80988968,69.3184667 4.69950782,72.4288486 4.69950782,76.250895 L4.72956456,76.6251493 C4.77513419,76.8975985 9.54735985,103.9777 36.9687499,103.9777 L87.8033264,103.9777 C115.224717,103.9777 119.996942,76.8975985 120.040573,76.6251493 L120.072569,76.250895 C120.072569,72.4288486 116.963156,69.3184667 113.14111,69.3184667 L106.288186,69.3184667 L106.288186,67.0079804 L120.720242,67.0108889 C122.571151,67.026402 124.481205,67.0380371 125.856056,65.672882 C126.669526,64.8642601 127.083532,63.7589499 127.083532,62.3870077 L127.083532,60.0755518 C127.083532,56.2544749 123.97315,53.1440931 120.152073,53.1440931 L120.152073,53.1440931 Z M113.14111,73.9394391 C114.35889,73.9394391 115.359487,74.8867094 115.444809,76.0841289 C114.988141,78.5516855 110.4331,99.3557576 87.8033264,99.3557576 L36.9697194,99.3557576 C14.4301164,99.3557576 9.79653938,78.5516855 9.32823681,76.0792811 C9.41549827,74.8847703 10.4160949,73.9394391 11.6319361,73.9394391 L92.4242989,73.9394391 L92.4242989,78.5613813 C92.4242989,82.3824582 95.5337112,85.4928401 99.3557576,85.4928401 C103.178774,85.4928401 106.288186,82.3834277 106.288186,78.5613813 L106.288186,73.9394391 L113.14111,73.9394391 Z M122.46256,62.3424076 C122.023344,62.3957338 121.281623,62.3918557 120.755146,62.388947 L101.667213,62.3870077 L101.667213,78.5613813 C101.667213,79.8363665 100.629773,80.8718674 99.3567274,80.8718674 C98.0836813,80.8718674 97.0462411,79.8363665 97.0462411,78.5613813 L97.0462411,62.3870077 L6.93242853,62.3870077 L6.32935561,62.388947 C5.80190931,62.3957338 5.06309678,62.4005818 4.62194219,62.3424076 L4.62194219,60.0755518 C4.62194219,58.8005669 5.6593824,57.7650655 6.93242853,57.7650655 L120.152073,57.7650655 C121.427059,57.7650655 122.46256,58.8005669 122.46256,60.0755518 L122.46256,62.3424076 Z" id="Shape"></path>
            <path d="M13.8638873,50.8384545 C16.5835322,50.8384545 19.0830846,49.6507308 20.7953461,47.71159 C22.5095465,49.6507308 25.0081294,50.8384545 27.7277746,50.8384545 C30.4474195,50.8384545 32.9479417,49.6507308 34.6602029,47.71159 C36.3744033,49.6507308 38.8720167,50.8384545 41.5916616,50.8384545 C44.3113068,50.8384545 46.8118287,49.6507308 48.5240902,47.71159 C50.2382906,49.6507308 52.735904,50.8384545 55.4555489,50.8384545 C58.1751939,50.8384545 60.675716,49.6507308 62.3879772,47.71159 C64.1021777,49.6507308 66.599791,50.8384545 69.3194362,50.8384545 C72.0400507,50.8384545 74.5396033,49.6507308 76.2518645,47.71159 C77.966065,49.6507308 80.4646481,50.8384545 83.184293,50.8384545 C85.9039379,50.8384545 88.4034903,49.6507308 90.1157518,47.71159 C91.8299523,49.6507308 94.3285351,50.8384545 97.0481803,50.8384545 C99.7697643,50.8384545 102.270286,49.6478223 103.979639,47.71159 C105.6919,49.6507308 108.192422,50.8384545 110.912067,50.8384545 C116.009099,50.8384545 120.154012,46.6906325 120.154012,41.577118 L120.075477,27.713231 L120.04639,27.3525508 C119.999851,27.0801013 115.228595,0 87.806235,0 L36.9697194,0 C9.54735985,0 4.77610394,27.0801013 4.72956456,27.3525508 L4.69950782,27.713231 L4.62097268,41.5955399 C4.62097268,46.6925717 8.76685548,50.8384545 13.8638873,50.8384545 Z M110.909159,46.2165126 C108.80713,46.2165126 106.966885,44.7999703 106.435561,42.7599942 C106.137903,41.6420793 105.12858,40.8586664 103.9777,40.8586664 C102.82682,40.8586664 101.814588,41.6420793 101.51693,42.7716288 C100.987545,44.7999703 99.1511785,46.2165126 97.0452715,46.2165126 C94.9403341,46.2165126 93.1039677,44.7999703 92.5726433,42.7687202 C92.2788634,41.6411098 91.2695407,40.8576969 90.1138128,40.8576969 C88.9590544,40.8576969 87.9468229,41.6440186 87.653043,42.7687202 C87.1236574,44.7999703 85.2843824,46.2165126 83.1823538,46.2165126 C81.0793556,46.2165126 79.2400806,44.7999703 78.708756,42.7687202 C78.4149761,41.6411098 77.4056534,40.8576969 76.2499255,40.8576969 C75.0951671,40.8576969 74.0829356,41.6440186 73.7891557,42.7687202 C73.2597703,44.7999703 71.4214649,46.2165126 69.3184667,46.2165126 C67.2154683,46.2165126 65.3761933,44.7999703 64.8448687,42.7687202 C64.5520583,41.6411098 63.5417661,40.8576969 62.3870077,40.8576969 C61.2312798,40.8576969 60.2190483,41.6440186 59.9262381,42.7687202 C59.3968526,44.7999703 57.5575776,46.2165126 55.4545794,46.2165126 C53.351581,46.2165126 51.512306,44.7999703 50.9809814,42.7687202 C50.6881713,41.6411098 49.6778788,40.8576969 48.5231206,40.8576969 C47.3673927,40.8576969 46.355161,41.6440186 46.0623508,42.7687202 C45.5329653,44.7999703 43.6936903,46.2165126 41.5906921,46.2165126 C39.4886635,46.2165126 37.6493885,44.7999703 37.1180639,42.7687202 C36.824284,41.6411098 35.8139915,40.8576969 34.6592334,40.8576969 C33.5044749,40.8576969 32.4922434,41.6440186 32.1984635,42.7687202 C31.6690782,44.7999703 29.8298032,46.2165126 27.7277746,46.2165126 C25.6247762,46.2165126 23.7855012,44.7999703 23.2541766,42.7687202 C22.9603967,41.6411098 21.951074,40.8576969 20.7953461,40.8576969 C19.6405876,40.8576969 18.6283561,41.6440186 18.3345765,42.7687202 C17.8051909,44.7999703 15.9668854,46.2165126 13.8638873,46.2165126 C11.3148868,46.2165126 9.24194511,44.1416319 9.24194511,41.6042662 L9.2836367,34.2500745 C9.49015513,34.3237619 9.71121718,34.3654535 9.92646194,34.4207189 C10.0602625,34.4556234 10.1872763,34.4992543 10.3239857,34.5273718 C10.7467184,34.6078462 11.1830252,34.6592334 11.6319361,34.6592334 L113.14111,34.6592334 C113.590021,34.6592334 114.026328,34.6078462 114.451969,34.5273718 C114.590618,34.5021628 114.71957,34.4556234 114.853371,34.4207189 C115.066677,34.3654535 115.283861,34.3257011 115.48844,34.2520138 L115.530131,41.5955399 C115.530131,44.1426014 113.458159,46.2165126 110.909159,46.2165126 L110.909159,46.2165126 Z M36.9697194,4.62097268 L87.8033264,4.62097268 C110.202342,4.62097268 114.911545,25.1438693 115.431235,27.8315184 C115.424448,28.0002238 115.37597,28.1553551 115.334278,28.3124254 C115.302282,28.4345914 115.287739,28.5645137 115.234412,28.6798926 C115.165573,28.8340544 115.054072,28.9610681 114.955176,29.0958382 C114.883428,29.1927953 114.828162,29.3013872 114.739931,29.3847703 C114.60904,29.5117841 114.444212,29.5990453 114.285203,29.6911546 C114.195033,29.744481 114.118437,29.8210769 114.019541,29.8598597 C113.74903,29.9732994 113.453312,30.0382607 113.14111,30.0382607 L11.6319361,30.0382607 C11.3197345,30.0382607 11.0240154,29.9732994 10.7535054,29.8598597 C10.6565484,29.8210769 10.5848001,29.74642 10.4946301,29.6930936 C10.3327118,29.5990453 10.1659456,29.5108144 10.0321451,29.3818616 C9.94682285,29.2984784 9.89349642,29.1898865 9.82174809,29.0948687 C9.71994326,28.9591289 9.60941235,28.8292066 9.53766402,28.6750448 C9.48724636,28.5635442 9.47270274,28.4365304 9.44070698,28.3163036 C9.39707637,28.1543856 9.34859773,27.997315 9.34084116,27.8237619 C9.85277434,25.139991 14.4853819,4.62097268 36.9697194,4.62097268 Z" id="Shape"></path>
        </g>
    </g>
</svg>