<?xml version="1.0" encoding="UTF-8"?>
<svg width="235px" height="152px" viewBox="0 0 235 152" version="1.1" xmlns="http://www.w3.org/2000/svg" xmlns:xlink="http://www.w3.org/1999/xlink">
    <title>pizza</title>
    <g id="pizza" stroke="none" stroke-width="1" fill="none" fill-rule="evenodd">
        <g id="135413" transform="translate(61.000000, 27.000000)" fill="#424141" fill-rule="nonzero">
            <path d="M52.3161196,17.7673208 C52.6774613,17.6866824 53.0413721,17.7498628 53.3350691,17.9294287 C53.4866274,18.0208744 53.7537805,18.2295367 53.8325563,18.5969816 C54.3882693,21.2098315 57.102614,22.8774665 59.893166,22.3312869 C60.2562203,22.2531426 60.6175623,22.3138292 60.9112593,22.4933951 C61.0636738,22.5848406 61.3308269,22.7935028 61.4096029,23.160948 C61.6818935,24.4470053 62.476503,25.5418586 63.6444419,26.2459897 C64.4715893,26.7439523 65.415188,27 66.379337,27 C66.7406787,27 67.1063019,26.9642532 67.4676438,26.8910968 C68.5071436,26.6824345 69.1758827,25.6931594 68.9592489,24.6839327 C68.7434714,23.6763686 67.7288031,23.0320928 66.6875907,23.235767 C66.3219676,23.3105862 65.9649071,23.2507309 65.668641,23.073659 C65.517083,22.9822133 65.2499298,22.7735511 65.1728665,22.4061062 C64.8980068,21.1200486 64.1042538,20.0227015 62.9354584,19.3210644 C61.8000575,18.6343911 60.4411725,18.404946 59.1131129,18.6734633 C58.4015607,18.8206075 57.720834,18.4423555 57.5941075,17.8413085 C57.3192478,16.5560824 56.5254947,15.4587353 55.3566996,14.757098 C54.2212985,14.0720874 52.8589885,13.8401483 51.5326415,14.1094971 C50.4922853,14.3181592 49.8235461,15.3074343 50.0410363,16.3166612 C50.2576701,17.3250566 51.2672009,17.9726577 52.3161196,17.7673208 L52.3161196,17.7673208 Z" id="Path"></path>
            <path d="M60.0721854,46 C59.0306109,46.0228086 58.2042448,46.8912211 58.2252612,47.9353435 C58.2303052,48.1549809 58.1042065,48.2994348 58.0134158,48.3011242 C55.8134155,48.350965 54.0640078,50.2508285 54.1136066,52.5392813 C54.1186505,52.7589187 53.992552,52.9033726 53.901761,52.905062 C52.8114283,52.9295602 51.8051616,53.400091 51.063702,54.2271104 C50.3541873,55.0228735 49.9767322,56.0585484 50.0011112,57.1449087 C50.023809,58.1763597 50.8636255,59 51.8867056,59 L51.9295789,59 C52.9711533,58.975502 53.7975195,58.1087789 53.7731403,57.0621224 C53.7714591,56.9218923 53.8454369,56.7014101 53.9849861,56.6997207 C56.1849861,56.6507246 57.9360751,54.7483268 57.8873171,52.459874 C57.8814324,52.2402366 58.0083717,52.0974724 58.0966407,52.0957827 C60.2974815,52.0459419 62.0485706,50.144389 61.9989718,47.855936 C61.976274,46.8092793 61.1650398,46.0565989 60.0721854,46 L60.0721854,46 Z" id="Path"></path>
            <path d="M45.2661777,37.7088101 C44.9783326,38.3873748 44.2794013,38.7257806 43.7104645,38.4662778 C42.4907112,37.9095741 41.1299896,37.8990537 39.8815363,38.4443602 C38.6668476,38.9738864 37.7003303,39.9663091 37.1609376,41.2410291 C36.7397217,42.2352056 37.1735995,43.3977079 38.1325198,43.8325505 C38.3806909,43.9473981 38.6406799,44 38.8947599,44 C39.6215474,44 40.3171022,43.560774 40.6294265,42.8234702 C40.7779916,42.4771742 41.0320719,42.2097811 41.3460843,42.0712629 C41.5089996,42.001127 41.8348298,41.9081968 42.1834513,42.0660026 C44.6660083,43.2048342 47.6043899,41.9572919 48.7355107,39.2930045 C48.8832317,38.9467087 49.1373118,38.6793157 49.4521685,38.5407972 C49.6150838,38.4706613 49.9400699,38.3777313 50.2895355,38.5355368 C51.5092888,39.0922406 52.8700104,39.1018843 54.1184637,38.5565776 C55.3331524,38.0270518 56.2996697,37.0355055 56.8390624,35.7607855 C57.2602783,34.7666093 56.8264005,33.6041067 55.8674802,33.1683875 C54.90856,32.7282847 53.7926335,33.1806614 53.3705735,34.1783444 C53.2220084,34.5246405 52.9679281,34.7920335 52.6539157,34.9296752 C52.4926887,35.0006877 52.1668583,35.0909877 51.8165487,34.9358121 C50.5925746,34.3791084 49.2343856,34.3694646 47.9850881,34.9138947 C46.768711,35.4434207 45.8047261,36.434967 45.2661777,37.7088101 Z" id="Path"></path>
            <path d="M112.276902,31.7162216 C112.262986,31.6795454 112.234284,31.6559677 112.218628,31.6184181 C111.680254,29.4510226 110.990543,27.4163602 110.151235,25.520544 C110.124273,25.4288532 110.069479,25.3458948 110.027731,25.2559505 C105.557221,15.4039936 97.2015424,9.14369594 87.1185421,5.33547191 C87.0559202,5.30403484 87.0106933,5.25251352 86.9428529,5.22718923 C86.8958864,5.21147092 86.8489201,5.21933007 86.8019535,5.20797794 C82.4975658,3.60993859 77.8878961,2.45026842 73.1460246,1.63465691 C73.1338482,1.63029074 73.1277599,1.62068498 73.116453,1.61631881 C72.8624865,1.52637445 72.6006919,1.49319123 72.3467252,1.51065592 C62.6029272,-0.0803974638 52.353805,-0.245440828 43.0257471,0.242703523 C43.0005244,0.242703523 42.9805201,0.228731593 42.9552975,0.228731593 C42.9144192,0.228731593 42.8796293,0.250562677 42.8361419,0.252309057 C34.4691566,0.696791239 26.8571134,1.65386842 21.0785011,2.56553662 C16.0765745,3.35757044 12.3201286,7.4033175 11.8191531,12.436705 L11.8191531,12.4428177 C11.8095858,12.5449876 11.7800145,12.6366784 11.7721868,12.7362283 L8.8393932,50.3635082 C5.28385931,52.6383132 -2.21598633,58.8051735 0.631571989,68.9121183 C1.6370016,72.4758336 3.27908771,74.5707498 5.51434274,75.13312 C5.92312465,75.2370363 6.5884828,75.577602 6.49020122,76.2010994 C5.73699848,80.9995839 4.45672796,89.8534212 4.36105568,95.2404733 C4.31321943,97.8331394 5.16296414,100.009268 6.81635693,101.526095 C9.15946083,103.678646 12.4549397,104 14.1996563,104 C14.8128293,104 15.2372668,103.958957 15.3599014,103.947605 C16.0487426,103.902196 22.1422039,103.376503 24.1521939,99.1508672 C25.3768005,96.5791589 24.7323165,93.4433339 22.2544017,89.8377028 L54.263774,76.8088784 C54.2698621,76.8132446 54.27769,76.8132446 54.2837781,76.8167375 C54.6647282,77.0193305 55.0726405,77.1773879 55.493599,77.3066283 C55.5605696,77.3284594 55.6205824,77.3616428 55.6892925,77.3817275 C56.1772218,77.5170804 56.688634,77.6070248 57.2252693,77.6445744 C57.6705808,77.6716448 58.1080644,77.6716448 58.5377205,77.6524335 C58.633393,77.6480674 58.7290652,77.6349686 58.8264771,77.6288558 C59.1917717,77.6035318 59.5492386,77.561616 59.8980079,77.5013621 C59.9858525,77.4856436 60.0736973,77.4699253 60.1615419,77.4524603 C60.5738028,77.3721217 60.9738873,77.2682055 61.3591862,77.1407115 C61.3844089,77.1328523 61.4113711,77.1249932 61.4365938,77.117134 C62.8638521,76.6307361 64.0997653,75.8369559 65.0251783,74.7515115 C65.3765569,74.340213 65.6670529,73.8791393 65.9331962,73.3971077 C65.9410239,73.3848822 65.9471122,73.3717837 65.9523306,73.3578117 C66.2106462,72.8836393 66.425474,72.3719173 66.5985542,71.8287586 C66.6046425,71.8112937 66.6124701,71.7990682 66.6185584,71.7816033 L103.280218,56.8552161 C103.524617,56.7731312 109.325843,54.7498209 112.297776,48.6266227 C114.574778,43.9399137 114.566951,38.2533383 112.276902,31.7162216 L112.276902,31.7162216 Z M107.384563,35.724419 C106.70529,34.2311689 105.965133,32.7606233 105.169313,31.3145286 L107.480236,29.328768 C108.035136,30.871793 108.499582,32.4942835 108.843133,34.2198168 C109.186683,35.9418571 108.890099,37.6691368 108.109064,39.1274571 C108.134287,38.0551115 107.929026,36.919019 107.384563,35.724419 Z M105.852066,25.5711923 L103.122794,27.9158567 C101.664224,25.6986861 99.9951759,23.5758262 98.0486778,21.5926853 L100.426571,18.1267736 C102.566154,20.2906761 104.399585,22.7584683 105.852066,25.5711923 Z M86.1183309,13.2654152 L87.4246938,9.6475586 C91.1202574,11.1975696 94.5166272,13.1248227 97.4902988,15.4921914 L95.1454556,18.910948 C92.5918725,16.7942007 89.606894,14.896638 86.1183309,13.2654152 Z M72.6259148,8.98651173 L73.7705043,5.69175611 C77.2242776,6.33621126 80.5832483,7.17802003 83.771748,8.26171777 L82.5167001,11.7407283 C79.5708605,10.6351994 76.2788606,9.71392527 72.6259148,8.98651173 L72.6259148,8.98651173 Z M58.5759894,7.34393658 L58.5759894,4.02560327 C62.3533094,4.19064686 66.1428057,4.51549422 69.8601128,5.04730074 L68.7250904,8.3167323 C65.5983429,7.85216563 62.2280655,7.5203323 58.5759894,7.34393658 L58.5759894,7.34393658 Z M52.2833554,3.88850377 C53.0756968,3.88850377 53.8723869,3.89461654 54.6716862,3.90771528 L54.6716862,7.21469645 C51.6058211,7.15968192 48.3477412,7.21294985 44.9096235,7.36576789 L44.9096235,4.06664587 C47.3249164,3.95923683 49.7845666,3.88850377 52.2833554,3.88850377 Z M29.2915409,8.66341075 L29.2915409,5.38000726 C32.8775158,4.94076467 36.8253066,4.55129724 41.0053201,4.27797142 L41.0053201,7.57360023 C37.319324,7.81461602 33.4089325,8.18137917 29.2915409,8.66341075 Z M21.6873254,6.44100073 C22.8406124,6.25849246 24.0904417,6.07423758 25.3872375,5.8917293 L25.3872375,9.13758317 C22.4901035,9.52006486 19.4520703,9.97851874 16.3383689,10.4823814 C17.3220551,8.37174683 19.2798601,6.82086263 21.6873254,6.44100073 Z M20.6331896,97.4532777 C19.7608313,99.2975725 16.2540033,99.9507602 15.0206994,100.040704 C14.0857191,100.148114 11.0494253,100.100958 9.45082658,98.6330326 C8.62717444,97.874182 8.2366572,96.7887379 8.26535886,95.3103329 C8.35755214,90.1608036 9.609121,81.5113059 10.3484075,76.8132446 C10.7432737,74.3017902 9.11075489,71.997295 6.46758763,71.3301353 C5.72917079,71.1441341 4.95422438,69.8403782 4.39236642,67.8432657 C2.10579637,59.7325605 8.72632572,54.9139911 11.6782539,53.2190214 L12.5740953,52.7029332 L15.5451578,14.5787766 C25.8673389,12.8654686 34.9336024,11.8167007 42.8970242,11.3425283 C42.9178982,11.3425283 42.9361631,11.3547538 42.9570371,11.3547538 C42.9926967,11.3547538 43.0213984,11.3364157 43.057058,11.3346691 C53.5949369,10.715538 62.2124099,11.091907 69.3173894,12.2210135 C69.353919,12.2367318 69.3774022,12.2664222 69.4165409,12.279521 C69.6296293,12.3537468 69.8461968,12.3895498 70.0584158,12.3895498 C70.1210377,12.3895498 70.1793107,12.3677187 70.2419326,12.3598593 C75.0081571,13.1754709 79.0568388,14.3438734 82.5514901,15.7725034 C82.6993475,15.8816591 82.8463351,15.9978007 83.0298522,16.0650405 C83.1603146,16.1121959 83.2933862,16.1156889 83.4264577,16.1331538 C87.7264967,17.997533 91.1315641,20.2784507 93.899975,22.8248347 C94.0365258,23.0405264 94.2165638,23.2326405 94.4392196,23.3872051 C94.4835766,23.4186417 94.5322826,23.4291209 94.5792491,23.4561913 C98.9097292,27.6565028 101.626825,32.5100018 103.833378,37.3538952 C105.557221,41.1350486 100.583126,43.9573784 100.01518,44.2630145 L63.0108396,59.7107292 L62.7707889,60.6651868 C62.5116036,61.7043489 62.5037759,62.8255963 62.7455662,63.9075477 C63.2665457,66.2242682 63.3822223,68.1724792 63.1152095,69.7032787 L63.0699825,69.9250832 C62.7246922,71.5851231 61.8984306,72.5570454 60.8947404,73.1080634 C59.9093146,73.625898 58.8003848,73.735927 58.0350057,73.7376734 C57.8514886,73.7350538 57.6679715,73.7376734 57.489673,73.7237015 C57.1461221,73.700124 56.8364914,73.6337571 56.5486045,73.5333341 C56.5216422,73.5237283 56.4946801,73.5141225 56.4668482,73.5036436 C56.1841798,73.3962343 55.9241248,73.2547687 55.6919018,73.0687674 L55.5553512,72.9587383 C55.4440233,72.8574418 55.3326955,72.7570188 55.233544,72.633891 C54.0993913,71.2323318 53.8671685,68.5313832 54.1324419,66.618102 L54.6012364,63.2229231 L22.8432217,76.4814112 C19.2059313,77.9004353 17.0637397,79.8276884 16.296621,82.3731992 C15.4825359,85.0802608 16.3496758,88.2064798 18.9519648,91.9256329 C20.1235165,93.5970251 21.3611694,95.9102527 20.6331896,97.4532777 L20.6331896,97.4532777 Z M20.0374116,83.5110383 C20.4279288,82.2133954 21.8490986,81.0781761 24.3035303,80.1219721 L50.1794327,69.3199241 C50.2803234,70.7031451 50.5890843,72.3125366 51.3405475,73.7673639 L20.3444329,86.3840164 C19.9226045,85.2592761 19.8017095,84.2908468 20.0374116,83.5110383 L20.0374116,83.5110383 Z M108.815301,46.8504413 C106.586134,51.4996009 102.070397,53.1212179 101.926019,53.1762325 L67.1377985,67.33591 C67.0873532,66.0146893 66.9073151,64.5956652 66.5576759,63.0491472 C66.5167979,62.8683853 66.491575,62.6884968 66.4820079,62.5121011 L106.062545,45.9902942 C107.566341,45.3624308 108.838784,44.400114 109.89118,43.2535426 C109.693747,44.5337207 109.348457,45.7414192 108.815301,46.8504413 L108.815301,46.8504413 Z" id="Shape"></path>
        </g>
        <path d="M140.254536,54.3239064 C137.813389,54.2780442 135.132042,55.467916 134.199144,57.1661921 L134.137,57.286 L133.854245,57.1889447 L133.405314,57.2387659 C129.325726,57.6915082 126.812797,58.8746615 125.905573,61.0080684 C125.082595,62.9433629 125.821253,64.9216809 127.411926,66.7166742 L127.598645,66.9217754 C128.264278,67.6321709 129.024682,68.26668 129.765689,68.751137 C130.524336,69.2471262 131.347367,69.6193497 132.224883,69.8826063 C133.746653,70.3391405 135.116849,70.4384787 136.90235,70.3644017 L137.602,70.329 L137.746547,70.4460461 C138.141915,70.7500282 138.589265,70.9933572 139.178183,71.260243 L140.005461,71.6287606 L140.171969,71.7121626 C140.256453,71.7560822 140.333365,71.799374 140.404791,71.843343 L140.508078,71.9099676 C140.647919,72.0045918 140.782794,72.0836569 140.940918,72.1538832 C141.326196,72.3249932 141.730956,72.4095617 142.252441,72.2964248 C143.078473,72.117216 143.626343,71.4988695 143.803662,70.7864741 C143.881095,70.4753782 143.880636,70.2241471 143.846929,69.9598529 L143.835427,69.8868068 L143.795218,69.6904043 L143.604168,68.9182423 C143.416582,68.1211581 143.382675,67.3950119 143.574333,66.5914783 C143.705527,66.0414412 143.957979,65.5926292 144.541887,64.8415277 L145.089333,64.1525001 C146.23267,62.7009322 146.773814,61.5889738 146.771793,59.9974096 C146.767731,56.8627332 143.733698,54.4915964 140.469257,54.3311785 L140.254536,54.3239064 Z M140.27293,58.3263575 C141.616306,58.3923724 142.770848,59.2946617 142.77176,60.0025656 C142.772287,60.4126344 142.63332,60.7569254 142.19303,61.3554892 L141.810238,61.8495296 L141.566077,62.155129 C140.534515,63.4502522 139.99588,64.3536864 139.68348,65.663436 L139.60907,66.0034232 C139.586681,66.1158938 139.566683,66.2275333 139.549004,66.3384234 L139.504,66.651 L139.436627,66.6082475 C139.19237,66.4687247 138.934616,66.3947303 138.657295,66.3496609 C138.463759,66.3182082 138.279005,66.3082559 138.065683,66.3089246 L137.849822,66.3129533 L137.107149,66.3500876 C135.537757,66.4345132 134.461954,66.3776072 133.374282,66.0513034 C132.852153,65.8946636 132.379045,65.6806961 131.954536,65.4031599 C131.476953,65.0909245 130.961915,64.6611585 130.535789,64.2065559 L130.386729,64.0427727 C129.728475,63.2996659 129.517739,62.7352606 129.58657,62.5734003 C129.636413,62.4561909 129.841205,62.2667753 130.329094,62.0370641 L130.51237,61.9554606 C131.147359,61.6878091 132.023196,61.4643667 133.144349,61.3033398 L133.446,61.262 L133.548824,61.2897657 C135.706644,61.8356875 137.53656,61.1342607 137.819,59.028 L137.917137,58.9621785 C137.993786,58.9125095 138.081804,58.8608493 138.178883,58.8099135 C138.805757,58.4810031 139.579925,58.2923026 140.27293,58.3263575 Z" id="Path-7" fill="#424141" fill-rule="nonzero"></path>
        <path d="M92.394609,75.3733516 C89.953462,75.3274894 87.2721152,76.5173612 86.3392174,78.2156373 L86.277073,78.3354452 L85.9943183,78.2383899 L85.5453873,78.2882111 C81.4657987,78.7409534 78.9528705,79.9241067 78.0456461,82.0575136 C77.2226684,83.9928081 77.9613264,85.971126 79.551999,87.7661194 L79.7387181,87.9712205 C80.4043508,88.6816161 81.1647555,89.3161252 81.9057625,89.8005821 C82.6644089,90.2965714 83.4874403,90.6687949 84.364956,90.9320515 C85.886726,91.3885857 87.2569224,91.4879239 89.0424227,91.4138469 L89.742073,91.3784452 L89.8866199,91.4954913 C90.2819877,91.7994734 90.7293378,92.0428024 91.3182558,92.3096882 L92.1455344,92.6782058 L92.3120418,92.7616078 C92.3965262,92.8055274 92.473438,92.8488192 92.5448644,92.8927882 L92.6481509,92.9594128 C92.7879921,93.054037 92.9228674,93.1331021 93.0809914,93.2033284 C93.4662687,93.3744384 93.871029,93.4590069 94.392514,93.34587 C95.2185461,93.1666612 95.7664158,92.5483147 95.9437346,91.8359193 C96.021168,91.5248234 96.0207086,91.2735923 95.987002,91.0092981 L95.9755,90.936252 L95.9352912,90.7398495 L95.7442415,89.9676875 C95.5566555,89.1706033 95.5227478,88.4444571 95.7144058,87.6409235 C95.8456001,87.0908864 96.0980516,86.6420744 96.6819602,85.8909729 L97.2294057,85.2019453 C98.3727427,83.7503774 98.9138871,82.638419 98.911866,81.0468548 C98.9078045,77.9121784 95.8737713,75.5410416 92.6093304,75.3806237 L92.394609,75.3733516 Z M92.4130032,79.3758027 C93.7563795,79.4418176 94.9109209,80.3441068 94.9118335,81.0520108 C94.9123601,81.4620796 94.7733928,81.8063706 94.3331035,82.4049344 L93.9503114,82.8989748 L93.7061504,83.2045741 C92.6745881,84.4996974 92.1359529,85.4031316 91.8235528,86.7128812 L91.7491427,87.0528684 C91.7267542,87.165339 91.7067563,87.2769785 91.6890766,87.3878685 L91.644073,87.7004452 L91.5767001,87.6576927 C91.3324427,87.5181699 91.0746895,87.4441755 90.7973677,87.3991061 C90.6038321,87.3676534 90.4190784,87.3577011 90.2057565,87.3583698 L89.9898951,87.3623985 L89.2472216,87.3995327 C87.6778297,87.4839584 86.6020268,87.4270524 85.5143551,87.1007486 C84.9922263,86.9441088 84.5191179,86.7301413 84.0946092,86.4526051 C83.6170257,86.1403697 83.101988,85.7106037 82.6758625,85.2560011 L82.5268022,85.0922179 C81.868548,84.3491111 81.6578121,83.7847058 81.7266427,83.6228455 C81.7764856,83.5056361 81.9812778,83.3162205 82.4691669,83.0865093 L82.6524427,83.0049058 C83.2874318,82.7372543 84.1632687,82.5138119 85.2844224,82.3527849 L85.586073,82.3114452 L85.6888967,82.3392109 C87.846717,82.8851327 89.6766332,82.1837059 89.959073,80.0774452 L90.0572103,80.0116237 C90.133859,79.9619547 90.2218766,79.9102945 90.3189558,79.8593587 C90.9458304,79.5304483 91.7199983,79.3417477 92.4130032,79.3758027 Z" id="Path-7-Copy" fill="#424141" fill-rule="nonzero" transform="translate(88.308963, 84.384739) rotate(56.000000) translate(-88.308963, -84.384739) "></path>
        <path d="M97.6885543,45.0012813 C95.2474073,44.9554191 92.5660605,46.1452908 91.6331627,47.843567 L91.5710184,47.9633749 L91.2882636,47.8663195 L90.8393326,47.9161408 C86.759744,48.3688831 84.2468158,49.5520364 83.3395914,51.6854433 C82.5166137,53.6207378 83.2552717,55.5990557 84.8459443,57.394049 L85.0326634,57.5991502 C85.6982961,58.3095458 86.4587008,58.9440549 87.1997078,59.4285118 C87.9583542,59.9245011 88.7813856,60.2967245 89.6589014,60.5599812 C91.1806713,61.0165154 92.5508677,61.1158536 94.336368,61.0417766 L95.0360184,61.0063749 L95.1805652,61.123421 C95.575933,61.4274031 96.0232831,61.6707321 96.6122011,61.9376179 L97.4394797,62.3061354 L97.6059871,62.3895375 C97.6904715,62.4334571 97.7673833,62.4767488 97.8388097,62.5207179 L97.9420963,62.5873424 C98.0819375,62.6819667 98.2168127,62.7610318 98.3749367,62.8312581 C98.760214,63.0023681 99.1649743,63.0869366 99.6864593,62.9737997 C100.512491,62.7945908 101.060361,62.1762443 101.23768,61.463849 C101.315113,61.152753 101.314654,60.901522 101.280947,60.6372278 L101.269445,60.5641817 L101.229237,60.3677792 L101.038187,59.5956171 C100.850601,58.798533 100.816693,58.0723868 101.008351,57.2688532 C101.139545,56.7188161 101.391997,56.2700041 101.975906,55.5189026 L102.523351,54.829875 C103.666688,53.378307 104.207832,52.2663486 104.205811,50.6747845 C104.20175,47.5401081 101.167717,45.1689713 97.9032757,45.0085533 L97.6885543,45.0012813 Z M97.7069485,49.0037324 C99.0503248,49.0697473 100.204866,49.9720365 100.205779,50.6799405 C100.206305,51.0900093 100.067338,51.4343002 99.6270489,52.0328641 L99.2442567,52.5269044 L99.0000957,52.8325038 C97.9685334,54.127627 97.4298982,55.0310612 97.1174981,56.3408109 L97.043088,56.6807981 C97.0206995,56.7932687 97.0007016,56.9049082 96.9830219,57.0157982 L96.9380184,57.3283749 L96.8706454,57.2856224 C96.626388,57.1460996 96.3686348,57.0721052 96.091313,57.0270358 C95.8977774,56.995583 95.7130237,56.9856308 95.4997018,56.9862994 L95.2838404,56.9903282 L94.5411669,57.0274624 C92.971775,57.1118881 91.8959721,57.0549821 90.8083004,56.7286783 C90.2861716,56.5720385 89.8130633,56.358071 89.3885545,56.0805348 C88.9109711,55.7682994 88.3959333,55.3385333 87.9698078,54.8839308 L87.8207476,54.7201476 C87.1624933,53.9770408 86.9517575,53.4126355 87.020588,53.2507752 C87.0704309,53.1335658 87.2752231,52.9441502 87.7631122,52.714439 L87.946388,52.6328355 C88.5813771,52.365184 89.4572141,52.1417416 90.5783678,51.9807146 L90.8800184,51.9393749 L90.9828421,51.9671405 C93.1406624,52.5130624 94.9705785,51.8116355 95.2530184,49.7053749 L95.3511557,49.6395534 C95.4278044,49.5898844 95.5158219,49.5382242 95.6129012,49.4872883 C96.2397757,49.158378 97.0139436,48.9696774 97.7069485,49.0037324 Z" id="Path-7-Copy-2" fill="#424141" fill-rule="nonzero" transform="translate(93.602908, 54.012669) rotate(162.000000) translate(-93.602908, -54.012669) "></path>
    </g>
</svg>