<?xml version="1.0" encoding="UTF-8"?>
<svg width="235px" height="152px" viewBox="0 0 235 152" version="1.1" xmlns="http://www.w3.org/2000/svg" xmlns:xlink="http://www.w3.org/1999/xlink">
    <title>enchiladas</title>
    <g id="enchiladas" stroke="none" stroke-width="1" fill="none" fill-rule="evenodd">
        <g id="2431343" transform="translate(118.000000, 73.500000) rotate(-285.000000) translate(-118.000000, -73.500000) translate(74.000000, -3.000000)" fill="#424141" fill-rule="nonzero">
            <path d="M55.5390056,152.064015 L31.7790032,152.064015 C14.2360865,152.044374 0.0196412762,137.827929 1.70530257e-13,120.285012 L1.70530257e-13,31.7790032 C0.0196412762,14.2360865 14.2360865,0.0196412762 31.7790032,-3.06954462e-12 L55.5390056,-3.06954462e-12 C73.0819223,0.0196412762 87.2983676,14.2360865 87.3180088,31.7790032 L87.3180088,120.285012 C87.2983676,137.827929 73.0819223,152.044374 55.5390056,152.064015 Z M31.7790032,4.15800042 C16.5314011,4.17502296 4.17502296,16.5314011 4.15800042,31.7790032 L4.15800042,120.285012 C4.17502296,135.532614 16.5314011,147.888992 31.7790032,147.906015 L55.5390056,147.906015 C70.7866077,147.888992 83.1429859,135.532614 83.1600084,120.285012 L83.1600084,31.7790032 C83.1429859,16.5314011 70.7866077,4.17502296 55.5390056,4.15800042 L31.7790032,4.15800042 Z" id="Shape"></path>
            <path d="M73.1689274,146.263025 C72.8304657,146.263025 72.4968347,146.18271 72.1971433,146.025411 C49.242605,133.894742 34.4021075,106.422239 34.4021075,76.0320077 C34.4021075,45.6417766 49.242605,18.1692738 72.1971433,6.04098061 C72.9040062,5.66819443 73.7619357,5.73330102 74.4044475,6.20848863 C82.5066491,12.2134669 87.2945459,21.6941193 87.3180088,31.7790032 L87.3180088,120.285012 C87.2945459,130.369896 82.5066491,139.850549 74.4044475,145.855527 C74.0470016,146.120412 73.6138226,146.263025 73.1689274,146.263025 Z M72.9681554,10.355797 C52.0225253,22.0825462 38.5601079,47.6898888 38.5601079,76.0320077 C38.5601079,104.374127 52.0225253,129.981469 72.9681554,141.708218 C79.4005224,136.452416 83.1402468,128.591541 83.1600084,120.285012 L83.1600084,31.7790032 C83.1402468,23.4724748 79.4005224,15.6115994 72.9681554,10.355797 Z" id="Shape"></path>
            <path d="M65.0881506,125.002561 C64.4989718,125.002095 63.9376585,124.751662 63.5437504,124.313521 C57.4086579,117.333424 52.8026141,109.146385 50.0219331,100.27909 C49.7944377,99.5719871 49.9614583,98.7972297 50.4600798,98.2466614 C50.9587013,97.6960932 51.7131712,97.4533586 52.439288,97.6098934 C53.1654049,97.7664281 53.7528542,98.298451 53.9803495,99.005554 C56.5795352,107.3154 60.8898033,114.98898 66.6337387,121.532412 C67.1812061,122.142924 67.3189189,123.018102 66.9853981,123.767241 C66.6518773,124.51638 65.9093644,124.999676 65.0893386,125.001373 L65.0881506,125.002561 Z" id="Path"></path>
            <path d="M14.1526454,146.265387 C13.7077502,146.265387 13.2745712,146.122788 12.9171253,145.857903 C4.81290933,139.853176 0.0235502313,130.371364 2.55795385e-13,120.285012 L2.55795385e-13,31.7790032 C0.0235502313,21.6926511 4.81290933,12.2108389 12.9171253,6.20611263 C13.559399,5.73123857 14.4170304,5.66658139 15.1232415,6.03979261 C28.0962028,12.8945533 38.9070039,25.0240345 45.5598046,40.1959841 C45.7927226,40.7284008 45.7927226,41.3338955 45.5598046,41.8663122 C36.2223345,63.6864701 36.2223345,88.3775453 45.5598046,110.197703 C45.7927226,110.73012 45.7927226,111.335615 45.5598046,111.868031 C38.9070039,127.039981 28.0962028,139.169462 15.1232415,146.024223 C14.8243262,146.182844 14.4910401,146.265387 14.1526454,146.265387 Z M14.3522295,10.358173 C7.92002277,15.6133044 4.17955977,23.473028 4.15800042,31.7790032 L4.15800042,120.285012 C4.17813874,128.592653 7.91873876,136.454408 14.3522295,141.710594 C25.7463386,135.317966 35.2907316,124.490533 41.3887362,111.019799 C32.0738664,88.6253971 32.0738664,63.4409943 41.3887362,41.0465922 C35.2907316,27.5734828 25.7463386,16.7508017 14.3522295,10.353421 L14.3522295,10.358173 Z" id="Shape"></path>
            <path d="M40.6824288,133.050627 C40.6824288,134.155304 39.7871059,135.050627 38.6824288,135.050627 C37.5777517,135.050627 36.6824288,134.155304 36.6824288,133.050627 C36.6824288,131.94595 37.5777517,131.050627 38.6824288,131.050627 C39.7871059,131.050627 40.6824288,131.94595 40.6824288,133.050627 L40.6824288,133.050627 Z" id="Path"></path>
            <path d="M47.8175235,128.888184 C47.8175235,129.992862 46.9220012,130.888184 45.817969,130.888184 C44.7130459,130.888184 43.8175235,129.992862 43.8175235,128.888184 C43.8175235,127.783508 44.7130459,126.888184 45.817969,126.888184 C46.9220012,126.888184 47.8175235,127.783508 47.8175235,128.888184 L47.8175235,128.888184 Z" id="Path"></path>
            <path d="M50.8718975,133.475173 C50.8718975,134.57985 49.9763752,135.475173 48.871452,135.475173 C47.7674199,135.475173 46.8718975,134.57985 46.8718975,133.475173 C46.8718975,132.370496 47.7674199,131.475173 48.871452,131.475173 C49.9763752,131.475173 50.8718975,132.370496 50.8718975,133.475173 Z" id="Path"></path>
            <path d="M42.6337145,17.5846373 C42.6337145,18.6893145 41.7383916,19.5846373 40.6337145,19.5846373 C39.5290374,19.5846373 38.6337145,18.6893145 38.6337145,17.5846373 C38.6337145,16.4799604 39.5290374,15.5846373 40.6337145,15.5846373 C41.7383916,15.5846373 42.6337145,16.4799604 42.6337145,17.5846373 L42.6337145,17.5846373 Z" id="Path"></path>
            <path d="M48.5010238,23.3992901 C48.5010238,24.5039672 47.6055015,25.3992901 46.5014693,25.3992901 C45.3965462,25.3992901 44.5010238,24.5039672 44.5010238,23.3992901 C44.5010238,22.2946132 45.3965462,21.3992901 46.5014693,21.3992901 C47.6055015,21.3992901 48.5010238,22.2946132 48.5010238,23.3992901 L48.5010238,23.3992901 Z" id="Path"></path>
            <path d="M44.8608634,27.5367888 C44.8608634,28.6414659 43.9653411,29.5367888 42.8604179,29.5367888 C41.7563857,29.5367888 40.8608634,28.6414659 40.8608634,27.5367888 C40.8608634,26.4321119 41.7563857,25.5367888 42.8604179,25.5367888 C43.9653411,25.5367888 44.8608634,26.4321119 44.8608634,27.5367888 Z" id="Path"></path>
            <path d="M43.6186124,43.2051947 C42.5881549,43.2056813 41.7130115,42.4508638 41.5621842,41.4315042 C37.6660765,32.5519636 31.9830518,24.5699282 24.8672185,17.9827578 C24.1793002,17.359174 23.9882666,16.3550356 24.3991465,15.5224096 C24.8472831,14.4743588 25.6131125,13.5934264 26.5886307,13.0038493 C27.9891827,12.4033694 29.5524805,12.2977808 31.0210591,12.7044733 C31.5975829,12.8418265 32.1916435,12.8906973 32.7828633,12.8494093 C33.2629465,12.5188126 33.6909878,12.1183998 34.0528354,11.6614092 C34.957535,10.4202568 36.2609794,9.52738899 37.7451398,9.13215692 C39.2554497,9.02436556 40.7576826,9.43185723 42.0064962,10.288081 C42.5156809,10.6141492 43.073484,10.8571605 43.6590044,11.0080091 C44.2447389,10.8560527 44.8025533,10.6118335 45.3115126,10.284517 C46.5592824,9.42507213 48.0630359,9.01728168 49.574057,9.12859292 C51.057946,9.52371529 52.3610466,10.4166349 53.2651734,11.6578452 C53.6279532,12.1148206 54.0567739,12.5152134 54.5375215,12.8458453 C55.1281992,12.8905226 55.7222366,12.8452588 56.2993257,12.7116013 C57.7674879,12.3056716 59.3300259,12.4108183 60.7305661,13.0097893 C61.7049605,13.600168 62.4704744,14.4803221 62.9200504,15.5271616 C63.3318804,16.3599991 63.1418503,17.3649286 62.4543543,17.9898858 C55.1992454,24.7098046 49.4320368,32.8747895 45.5241646,41.9589762 L45.5241646,41.9589762 L45.5241646,41.9708562 C45.1893046,42.7232188 44.4421272,43.2072071 43.6186124,43.2051947 L43.6186124,43.2051947 Z M29.544375,16.6818977 C35.2713525,22.3720932 40.0380518,28.9530348 43.6590044,36.1686637 C47.282531,28.9550559 52.0498558,22.3755619 57.7760098,16.6854617 C57.4992058,16.7234777 57.2140858,16.7709977 56.9895538,16.8042617 C55.7340946,17.1213215 54.4183463,17.1115056 53.1677574,16.7757497 C51.9882911,16.2647325 50.9586961,15.4612559 50.1763731,14.4413295 C49.8075632,13.9698656 49.3665159,13.5596916 48.8695729,13.2260053 L48.8636329,13.2260053 C48.3136735,13.3908314 47.7882638,13.6285643 47.3014128,13.9328654 C46.2119729,14.6471269 44.9582846,15.0715654 43.6590044,15.1660095 C42.3590134,15.0723197 41.1044675,14.6482766 40.01422,13.9340534 C39.5163356,13.6336808 38.9827111,13.3970022 38.4258639,13.2295693 C37.9403402,13.568334 37.5072404,13.9766167 37.1404478,14.4413295 C36.3600751,15.4610429 35.3325523,16.2649068 34.1550035,16.7769377 C32.9039036,17.1118989 31.5879758,17.1217132 30.3320191,16.8054497 C30.105111,16.7674337 29.822367,16.7187257 29.544375,16.6818977 Z" id="Shape"></path>
            <path d="M65.9505918,37.7773784 C66.3461765,38.0381927 66.7921789,38.1652065 67.2304247,38.1652065 C67.9769941,38.1652065 68.7090195,37.8054958 69.1550222,37.1374616 C69.8628084,36.0748125 69.5758156,34.6417875 68.5151054,33.932062 L61.5826772,29.3110893 C60.520028,28.601364 59.0850638,28.8902959 58.378247,29.951006 C57.6704605,31.0136552 57.9574534,32.4466801 59.0181635,33.1564057 L65.9505918,37.7773784 Z" id="Path"></path>
            <path d="M51.5990139,55.1769681 C51.9286679,55.3408255 52.282561,55.4193606 52.6286976,55.4193606 C53.4770718,55.4193606 54.2924804,54.9529973 54.6987305,54.1414669 L57.0101863,49.5204945 C57.5802937,48.3783404 57.1187782,46.9899156 55.9766244,46.4188387 C54.830592,45.8526096 53.447015,46.3112163 52.8759381,47.4524006 L50.5654518,52.0733733 C49.9924356,53.2174664 50.4578294,54.6039519 51.5990139,55.1769681 Z" id="Path"></path>
            <path d="M13.573922,47.3421381 C13.9045454,47.5069652 14.2584388,47.5855003 14.6045754,47.5855003 C15.4529495,47.5855003 16.2683582,47.1181675 16.674608,46.3076064 L18.9850943,41.6856645 C19.5561715,40.5444799 19.0936862,39.1560551 17.9525019,38.5849782 C16.8084088,38.01681 15.4228928,38.4783256 14.8518156,39.6175708 L12.5413296,44.2395128 C11.9683134,45.3826363 12.4327377,46.7691222 13.573922,47.3421381 Z" id="Path"></path>
            <path d="M15.8892561,105.738394 C14.8246679,105.029638 13.3916427,105.315662 12.684826,106.378311 C11.9770395,107.441929 12.2640323,108.873985 13.3247424,109.58371 L20.2571707,114.204683 C20.6517859,114.465497 21.0977883,114.592511 21.5370037,114.592511 C22.2826032,114.592511 23.0155987,114.231831 23.4616008,113.564766 C24.1684179,112.501148 23.881425,111.069092 22.8207149,110.359367 L15.8892561,105.738394 Z" id="Path"></path>
            <path d="M24.8433267,84.6839826 C24.2732193,83.5418286 22.8867335,83.0851608 21.7426404,83.6504204 C20.6014561,84.2214974 20.1389711,85.6099222 20.710048,86.7520762 L23.0205343,91.3730487 C23.4248451,92.1816705 24.2402538,92.6490033 25.0886279,92.6490033 C25.4347645,92.6490033 25.7886579,92.5704682 26.1192814,92.4056411 C27.2604657,91.8355339 27.7219812,90.4471091 27.1518738,89.3049551 L24.8433267,84.6839826 Z" id="Path"></path>
            <path d="M73.0756142,88.1596422 C71.9295821,87.5905043 70.5450353,88.0529893 69.9749281,89.1922346 L67.6634723,93.813207 C67.0933647,94.9553611 67.5548804,96.3437859 68.6970342,96.9138933 C69.0295969,97.0806594 69.3834901,97.1591946 69.7296267,97.1591946 C70.5770313,97.1591946 71.3934095,96.6928312 71.7996595,95.8813006 L74.1101459,91.2603282 C74.6812228,90.1181741 74.2167985,88.7326581 73.0756142,88.1596422 L73.0756142,88.1596422 Z" id="Path"></path>
            <path d="M48.8921449,142.992446 C47.6157318,142.89498 46.384373,142.477854 45.3115126,141.779498 C44.8025533,141.452182 44.2447389,141.207963 43.6590044,141.056006 C43.0732699,141.207963 42.5154556,141.452182 42.0064962,141.779498 C40.7587264,142.638943 39.2549729,143.046734 37.7439518,142.935422 C36.2606004,142.53981 34.9577685,141.647494 34.0528354,140.407358 C33.6906605,139.949825 33.26175,139.549348 32.7804873,139.219358 C32.1899909,139.178014 31.5966449,139.227292 31.0210591,139.365482 C29.5526145,139.772549 27.9893199,139.66738 26.5886307,139.067294 C25.613289,138.476973 24.8475546,137.595735 24.3991465,136.547546 C23.9882666,135.71492 24.1793002,134.710781 24.8672185,134.087198 C31.9837158,127.498293 37.6667811,119.514179 41.5621842,110.632511 C41.6947414,109.741383 42.385883,109.036872 43.2743088,108.887268 C44.1627346,108.737664 45.0464869,109.176975 45.4635766,109.975547 L45.4635766,109.975547 L45.4635766,109.975547 L45.4635766,109.975547 L45.4635766,109.975547 L45.4635766,109.975547 C45.4813966,110.009999 45.4992166,110.046827 45.5134726,110.082467 L45.5134726,110.082467 L45.5134726,110.093159 C49.4206262,119.179474 55.1878766,127.346542 62.4436623,134.06819 C63.1311583,134.693147 63.3211884,135.698076 62.9093584,136.530914 C62.4594693,137.577923 61.6935224,138.458097 60.7186861,139.048286 C59.3188331,139.648381 57.7562802,139.753557 56.2886337,139.346474 C55.712189,139.208625 55.1180523,139.159748 54.5268295,139.201538 C54.0459038,139.531948 53.6170522,139.93237 53.2544814,140.389538 C52.3497243,141.630387 51.0462484,142.522857 49.562177,142.917602 C49.341309,142.961179 49.1171844,142.986214 48.8921449,142.992446 L48.8921449,142.992446 Z M32.4680433,135.022154 C33.0392132,135.015107 33.6074942,135.104265 34.1490635,135.28589 C35.3288251,135.797529 36.3584564,136.601852 37.1404478,137.622686 C37.5095574,138.093538 37.9505676,138.503277 38.4472479,138.836822 L38.4472479,138.836822 C38.9972074,138.671996 39.522617,138.434263 40.009468,138.129962 C41.1010989,137.414975 42.3573764,136.990899 43.6590044,136.898006 C44.9589954,136.991696 46.2135413,137.415739 47.3037888,138.129962 C47.7941188,138.438255 48.3256966,138.675445 48.8826409,138.834446 L48.8921449,138.834446 C49.3779383,138.495547 49.8110738,138.086831 50.1775611,137.621498 C50.9598841,136.601571 51.9894791,135.798095 53.1689454,135.287078 C54.419448,134.950687 55.7353594,134.94087 56.9907418,135.258566 C57.2140858,135.296582 57.4992058,135.344102 57.7771978,135.377366 C52.0500085,129.688327 47.2821944,123.109113 43.6590044,115.895352 C40.0372359,123.110028 35.2697161,129.689791 29.541999,135.378554 C29.818803,135.341726 30.103923,135.293018 30.3272671,135.259754 C31.0330292,135.121284 31.7490942,135.041809 32.4680433,135.022154 L32.4680433,135.022154 Z" id="Shape"></path>
        </g>
    </g>
</svg>